<svg xmlns="http://www.w3.org/2000/svg" viewBox="0 0 32 32" fill="none">
  <rect width="32" height="32" rx="6" fill="#1DB954"/>
  <path d="M16 6C11.2 6 7.3 9.9 7.3 14.7c0 2.9 1.5 5.5 3.7 7.1v4l3.6-2c.5.1.9.1 1.4.1 4.8 0 8.7-3.9 8.7-8.7S20.8 6.4 16 6z" fill="#121212"/>
  <path d="M13.3 12.2c0-1.5 1.2-2.7 2.7-2.7s2.7 1.2 2.7 2.7c0 .9-.5 1.7-1.2 2.2l-.1.1v2.9c0 .3-.3.6-.6.6h-1.5c-.3 0-.6-.3-.6-.6v-2.9l-.1-.1c-.8-.5-1.3-1.3-1.3-2.2z" fill="#1DB954"/>
  <circle cx="16" cy="12.2" r="1" fill="#121212"/>
</svg>
