<svg xmlns="http://www.w3.org/2000/svg" viewBox="0 0 512 512" fill="none">
  <rect width="512" height="512" rx="100" fill="#1DB954"/>
  <path d="M256 96C178.8 96 116 158.8 116 236c0 46.4 23.2 87.6 58.4 112.4V416l56.8-31.2c7.2 1.2 14.8 2 22.8 2 77.2 0 140-62.8 140-140s-62.8-140-140-140z" fill="#121212"/>
  <path d="M213 195c0-23.8 19.2-43 43-43s43 19.2 43 43c0 15-7.6 28-19.2 35.6l-2 1.2v47c0 5.2-4.2 9.6-9.6 9.6h-23.6c-5.2 0-9.6-4.2-9.6-9.6v-47l-2-1.2c-11.6-7.6-19-20.6-19-35.6z" fill="#1DB954"/>
  <circle cx="256" cy="195" r="16" fill="#121212"/>
</svg>
