<svg xmlns="http://www.w3.org/2000/svg" viewBox="0 0 192 192" fill="none">
  <rect width="192" height="192" rx="40" fill="#1DB954"/>
  <path d="M96 36C67.2 36 44 59.2 44 88c0 17.6 8.8 33.2 22 42.6V156l21.4-11.8c2.8.4 5.6.8 8.6.8 28.8 0 52-23.2 52-52s-23.2-52-52-52z" fill="#121212"/>
  <path d="M80 73c0-8.8 7.2-16 16-16s16 7.2 16 16c0 5.6-2.8 10.4-7.2 13.2l-.8.4v17.6c0 2-1.6 3.6-3.6 3.6h-8.8c-2 0-3.6-1.6-3.6-3.6V86.6l-.8-.4c-4.4-2.8-7.2-7.6-7.2-13.2z" fill="#1DB954"/>
  <circle cx="96" cy="73" r="6" fill="#121212"/>
</svg>
